<svg xmlns="http://www.w3.org/2000/svg" xmlns:xlink="http://www.w3.org/1999/xlink" version="1.1" width="256" height="256" viewBox="0 0 256 256" xml:space="preserve">
<desc>Created with Fabric.js 1.7.22</desc>
<defs>
</defs>
<g transform="translate(128 128) scale(0.72 0.72)" style="">
	<g style="stroke: none; stroke-width: 0; stroke-dasharray: none; stroke-linecap: butt; stroke-linejoin: miter; stroke-miterlimit: 10; fill: none; fill-rule: nonzero; opacity: 1;" transform="translate(-175.05 -175.05000000000004) scale(3.89 3.89)" >
	<path d="M 84.59 63.445 H 20.565 c -2.988 0 -5.41 -2.422 -5.41 -5.41 V 16.811 c 0 -2.988 2.422 -5.41 5.41 -5.41 H 84.59 c 2.988 0 5.41 2.422 5.41 5.41 v 41.224 C 90 61.023 87.578 63.445 84.59 63.445 z" style="stroke: none; stroke-width: 1; stroke-dasharray: none; stroke-linecap: butt; stroke-linejoin: miter; stroke-miterlimit: 10; fill: rgb(159,0,0); fill-rule: nonzero; opacity: 1;" transform=" matrix(1 0 0 1 0 0) " stroke-linecap="round" />
	<path d="M 77.012 71.022 H 12.988 c -2.988 0 -5.41 -2.422 -5.41 -5.41 V 24.388 c 0 -2.988 2.422 -5.41 5.41 -5.41 h 64.025 c 2.988 0 5.41 2.422 5.41 5.41 v 41.224 C 82.423 68.6 80 71.022 77.012 71.022 z" style="stroke: none; stroke-width: 1; stroke-dasharray: none; stroke-linecap: butt; stroke-linejoin: miter; stroke-miterlimit: 10; fill: rgb(204,0,0); fill-rule: nonzero; opacity: 1;" transform=" matrix(1 0 0 1 0 0) " stroke-linecap="round" />
	<path d="M 69.435 78.6 H 5.41 C 2.422 78.6 0 76.177 0 73.189 V 31.965 c 0 -2.988 2.422 -5.41 5.41 -5.41 h 64.025 c 2.988 0 5.41 2.422 5.41 5.41 v 41.224 C 74.845 76.177 72.423 78.6 69.435 78.6 z" style="stroke: none; stroke-width: 1; stroke-dasharray: none; stroke-linecap: butt; stroke-linejoin: miter; stroke-miterlimit: 10; fill: rgb(255,0,0); fill-rule: nonzero; opacity: 1;" transform=" matrix(1 0 0 1 0 0) " stroke-linecap="round" />
	<path d="M 31.168 62.411 l 15.338 -8.856 c 0.752 -0.434 0.752 -1.52 0 -1.954 l -15.338 -8.856 c -0.752 -0.434 -1.692 0.109 -1.692 0.977 v 17.713 C 29.476 62.302 30.416 62.845 31.168 62.411 z" style="stroke: none; stroke-width: 1; stroke-dasharray: none; stroke-linecap: butt; stroke-linejoin: miter; stroke-miterlimit: 10; fill: rgb(255,255,255); fill-rule: nonzero; opacity: 1;" transform=" matrix(1 0 0 1 0 0) " stroke-linecap="round" />
</g>
</g>
</svg>